<svg width="92" height="27" viewBox="0 0 92 27" fill="none" xmlns="http://www.w3.org/2000/svg">
<g filter="url(#filter0_dd_3_3)">
<path d="M4.32955 22V19.8097L13.0398 7.58807H4.3125V4.54545H17.6761V6.73579L8.95739 18.9574H17.6932V22H4.32955ZM19.5021 4.54545H23.6357L27.6158 12.0625H27.7862L31.7663 4.54545H35.8999L29.5334 15.8295V22H25.8686V15.8295L19.5021 4.54545ZM37.9155 22V4.54545H41.6058V12.2415H41.8359L48.1172 4.54545H52.5405L46.0632 12.3608L52.6172 22H48.2024L43.4212 14.8239L41.6058 17.0398V22H37.9155ZM69.5178 13.2727C69.5178 15.1761 69.157 16.7955 68.4354 18.1307C67.7195 19.4659 66.7422 20.4858 65.5036 21.1903C64.2706 21.8892 62.8842 22.2386 61.3445 22.2386C59.7933 22.2386 58.4013 21.8864 57.1683 21.1818C55.9354 20.4773 54.9609 19.4574 54.245 18.1222C53.5291 16.7869 53.1712 15.1705 53.1712 13.2727C53.1712 11.3693 53.5291 9.75 54.245 8.41477C54.9609 7.07955 55.9354 6.0625 57.1683 5.36364C58.4013 4.65909 59.7933 4.30682 61.3445 4.30682C62.8842 4.30682 64.2706 4.65909 65.5036 5.36364C66.7422 6.0625 67.7195 7.07955 68.4354 8.41477C69.157 9.75 69.5178 11.3693 69.5178 13.2727ZM65.7763 13.2727C65.7763 12.0398 65.5916 11 65.2223 10.1534C64.8587 9.30682 64.3445 8.66477 63.6797 8.22727C63.0149 7.78977 62.2365 7.57102 61.3445 7.57102C60.4524 7.57102 59.674 7.78977 59.0092 8.22727C58.3445 8.66477 57.8274 9.30682 57.4581 10.1534C57.0945 11 56.9126 12.0398 56.9126 13.2727C56.9126 14.5057 57.0945 15.5455 57.4581 16.392C57.8274 17.2386 58.3445 17.8807 59.0092 18.3182C59.674 18.7557 60.4524 18.9744 61.3445 18.9744C62.2365 18.9744 63.0149 18.7557 63.6797 18.3182C64.3445 17.8807 64.8587 17.2386 65.2223 16.392C65.5916 15.5455 65.7763 14.5057 65.7763 13.2727ZM74.4205 4.54545L78.6392 17.8068H78.8011L83.0284 4.54545H87.1193L81.1023 22H76.3466L70.321 4.54545H74.4205Z" fill="#8DC1D2"/>
</g>
<defs>
<filter id="filter0_dd_3_3" x="0.3125" y="0.306816" width="90.8068" height="25.9318" filterUnits="userSpaceOnUse" color-interpolation-filters="sRGB">
<feFlood flood-opacity="0" result="BackgroundImageFix"/>
<feColorMatrix in="SourceAlpha" type="matrix" values="0 0 0 0 0 0 0 0 0 0 0 0 0 0 0 0 0 0 127 0" result="hardAlpha"/>
<feOffset dx="1" dy="1"/>
<feGaussianBlur stdDeviation="1.5"/>
<feComposite in2="hardAlpha" operator="out"/>
<feColorMatrix type="matrix" values="0 0 0 0 0.485319 0 0 0 0 0.640827 0 0 0 0 0.691667 0 0 0 1 0"/>
<feBlend mode="normal" in2="BackgroundImageFix" result="effect1_dropShadow_3_3"/>
<feColorMatrix in="SourceAlpha" type="matrix" values="0 0 0 0 0 0 0 0 0 0 0 0 0 0 0 0 0 0 127 0" result="hardAlpha"/>
<feOffset dx="-1" dy="-1"/>
<feGaussianBlur stdDeviation="1.5"/>
<feComposite in2="hardAlpha" operator="out"/>
<feColorMatrix type="matrix" values="0 0 0 0 0.608475 0 0 0 0 0.839479 0 0 0 0 0.915 0 0 0 1 0"/>
<feBlend mode="normal" in2="effect1_dropShadow_3_3" result="effect2_dropShadow_3_3"/>
<feBlend mode="normal" in="SourceGraphic" in2="effect2_dropShadow_3_3" result="shape"/>
</filter>
</defs>
</svg>
